# xmcd
#
# Track frame offsets: 
#        150
#        19342
#        38772
#        54560
#        66158
#        83065
#        96560
#        108147
#        122794
#        136052
#        150341
#        164676
#        179816
#        199514
#        217332
#        228117
#        240985
#        255085
#        271754
#        283774
#        304329
#
# Disc length: 4241 seconds
#
# Revision: 0
# Processed by: cddbd v1.5.1PL0 Copyright (c) Steve Scherf et al.
# Submitted via: ExactAudioCopy v0.95a5
#
DISCID=23108f15
DTITLE=Various Artist - Sony-ATV Country Music [CD6: 1990-1993)
DYEAR=2003
DGENRE=Country
TTITLE0=Rodney Crowell - Many A Long And Lonesome Highway
TTITLE1=Travis Tritt - Put Some Drive In Your Country
TTITLE2=Doug Stone - These Lips Don't Know How To Say Goodbye
TTITLE3=Highway 101 - Walkin', Talkin', Cryin', Barely Beatin' Broken 
TTITLE3=Heart
TTITLE4=Kathy Mattea - Where've You Been
TTITLE5=Brooks and Dunn - Brand New Man
TTITLE6=Travis Tritt - Here's A Quarter (Call Someone Who Cares)
TTITLE7=Diamond Rio - Meet In The Middle
TTITLE8=Brooks and Dunn - My Next Broken Heart
TTITLE9=Sammy Kershaw - Don't Go Near The Water
TTITLE10=John Mitchell Montgomery - Life's Dance
TTITLE11=Rodney Crowell - Lovin' All Night
TTITLE12=Brooks and Dunn - Neon Moon
TTITLE13=Wynonna - No One Else On Earth
TTITLE14=Mark Chesnutt - Old Flames Have New Flames
TTITLE15=Garth Brooks - Papa Loved Mama
TTITLE16=Pam Tillis - Shake The Sugar Tree
TTITLE17=Joe Diffie - Ships That Don't Come In
TTITLE18=Trisha Yearwood - That's What I Like About You
TTITLE19=Garth Brooks - Ain't Goin' Down ('Til The Sun Comes Up)
TTITLE20=Tracy Lawrence - Alibis
EXTD=
EXTT0=
EXTT1=
EXTT2=
EXTT3=
EXTT4=
EXTT5=
EXTT6=
EXTT7=
EXTT8=
EXTT9=
EXTT10=
EXTT11=
EXTT12=
EXTT13=
EXTT14=
EXTT15=
EXTT16=
EXTT17=
EXTT18=
EXTT19=
EXTT20=
PLAYORDER=
